# Tiled2Unity generated file. Do not modify by hand.
# Wavefront file for 'test_area4_mesh_0002.obj'

# Vertices (Count = 16)
v -800 -912 0
v -816 -912 0
v -816 -896 0
v -800 -896 0
v -816 -928 0
v -832 -928 0
v -832 -912 0
v -816 -912 0
v -784 -928 0
v -800 -928 0
v -800 -912 0
v -784 -912 0
v -800 -944 0
v -816 -944 0
v -816 -928 0
v -800 -928 0

# Texture cooridinates (Count = 16)
vt 0.1756198 0.904943
vt 0.1921488 0.904943
vt 0.1921488 0.9353612
vt 0.1756198 0.9353612
vt 0.1580579 0.904943
vt 0.1745868 0.904943
vt 0.1745868 0.9353612
vt 0.1580579 0.9353612
vt 0.1580579 0.8726236
vt 0.1745868 0.8726236
vt 0.1745868 0.9030418
vt 0.1580579 0.9030418
vt 0.1580579 0.8403042
vt 0.1745868 0.8403042
vt 0.1745868 0.8707224
vt 0.1580579 0.8707224

# Normal
vn 0 0 -1

# Mesh description
g test_area4_mesh_0002

# Faces
f 1/1/1 2/2/1 3/3/1 4/4/1
f 5/5/1 6/6/1 7/7/1 8/8/1
f 9/9/1 10/10/1 11/11/1 12/12/1
f 13/13/1 14/14/1 15/15/1 16/16/1

