# Tiled2Unity generated file. Do not modify by hand.
# Wavefront file for 'test_area2_mesh_0002.obj'

# Vertices (Count = 196)
v -480 -464 0
v -496 -464 0
v -496 -448 0
v -480 -448 0
v -464 -464 0
v -480 -464 0
v -480 -448 0
v -464 -448 0
v -448 -464 0
v -464 -464 0
v -464 -448 0
v -448 -448 0
v -432 -464 0
v -448 -464 0
v -448 -448 0
v -432 -448 0
v -416 -464 0
v -432 -464 0
v -432 -448 0
v -416 -448 0
v -400 -464 0
v -416 -464 0
v -416 -448 0
v -400 -448 0
v -384 -464 0
v -400 -464 0
v -400 -448 0
v -384 -448 0
v -480 -480 0
v -496 -480 0
v -496 -464 0
v -480 -464 0
v -464 -480 0
v -480 -480 0
v -480 -464 0
v -464 -464 0
v -448 -480 0
v -464 -480 0
v -464 -464 0
v -448 -464 0
v -432 -480 0
v -448 -480 0
v -448 -464 0
v -432 -464 0
v -416 -480 0
v -432 -480 0
v -432 -464 0
v -416 -464 0
v -400 -480 0
v -416 -480 0
v -416 -464 0
v -400 -464 0
v -384 -480 0
v -400 -480 0
v -400 -464 0
v -384 -464 0
v -480 -496 0
v -496 -496 0
v -496 -480 0
v -480 -480 0
v -464 -496 0
v -480 -496 0
v -480 -480 0
v -464 -480 0
v -448 -496 0
v -464 -496 0
v -464 -480 0
v -448 -480 0
v -432 -496 0
v -448 -496 0
v -448 -480 0
v -432 -480 0
v -416 -496 0
v -432 -496 0
v -432 -480 0
v -416 -480 0
v -400 -496 0
v -416 -496 0
v -416 -480 0
v -400 -480 0
v -384 -496 0
v -400 -496 0
v -400 -480 0
v -384 -480 0
v -480 -512 0
v -496 -512 0
v -496 -496 0
v -480 -496 0
v -464 -512 0
v -480 -512 0
v -480 -496 0
v -464 -496 0
v -448 -512 0
v -464 -512 0
v -464 -496 0
v -448 -496 0
v -432 -512 0
v -448 -512 0
v -448 -496 0
v -432 -496 0
v -416 -512 0
v -432 -512 0
v -432 -496 0
v -416 -496 0
v -400 -512 0
v -416 -512 0
v -416 -496 0
v -400 -496 0
v -384 -512 0
v -400 -512 0
v -400 -496 0
v -384 -496 0
v -480 -528 0
v -496 -528 0
v -496 -512 0
v -480 -512 0
v -464 -528 0
v -480 -528 0
v -480 -512 0
v -464 -512 0
v -448 -528 0
v -464 -528 0
v -464 -512 0
v -448 -512 0
v -432 -528 0
v -448 -528 0
v -448 -512 0
v -432 -512 0
v -416 -528 0
v -432 -528 0
v -432 -512 0
v -416 -512 0
v -400 -528 0
v -416 -528 0
v -416 -512 0
v -400 -512 0
v -384 -528 0
v -400 -528 0
v -400 -512 0
v -384 -512 0
v -480 -544 0
v -496 -544 0
v -496 -528 0
v -480 -528 0
v -464 -544 0
v -480 -544 0
v -480 -528 0
v -464 -528 0
v -448 -544 0
v -464 -544 0
v -464 -528 0
v -448 -528 0
v -432 -544 0
v -448 -544 0
v -448 -528 0
v -432 -528 0
v -416 -544 0
v -432 -544 0
v -432 -528 0
v -416 -528 0
v -400 -544 0
v -416 -544 0
v -416 -528 0
v -400 -528 0
v -384 -544 0
v -400 -544 0
v -400 -528 0
v -384 -528 0
v -480 -560 0
v -496 -560 0
v -496 -544 0
v -480 -544 0
v -464 -560 0
v -480 -560 0
v -480 -544 0
v -464 -544 0
v -448 -560 0
v -464 -560 0
v -464 -544 0
v -448 -544 0
v -432 -560 0
v -448 -560 0
v -448 -544 0
v -432 -544 0
v -416 -560 0
v -432 -560 0
v -432 -544 0
v -416 -544 0
v -400 -560 0
v -416 -560 0
v -416 -544 0
v -400 -544 0
v -384 -560 0
v -400 -560 0
v -400 -544 0
v -384 -544 0

# Texture cooridinates (Count = 36)
vt 0.07024793 0.9695817
vt 0.08677686 0.9695817
vt 0.08677686 1
vt 0.07024793 1
vt 0.05268595 0.9695817
vt 0.06921487 0.9695817
vt 0.06921487 1
vt 0.05268595 1
vt 0.03512397 0.9695817
vt 0.05165289 0.9695817
vt 0.05165289 1
vt 0.03512397 1
vt 0.07024793 0.9372624
vt 0.08677686 0.9372624
vt 0.08677686 0.9676806
vt 0.07024793 0.9676806
vt 0.05268595 0.9372624
vt 0.06921487 0.9372624
vt 0.06921487 0.9676806
vt 0.05268595 0.9676806
vt 0.03512397 0.9372624
vt 0.05165289 0.9372624
vt 0.05165289 0.9676806
vt 0.03512397 0.9676806
vt 0.07024793 0.904943
vt 0.08677686 0.904943
vt 0.08677686 0.9353612
vt 0.07024793 0.9353612
vt 0.05268595 0.904943
vt 0.06921487 0.904943
vt 0.06921487 0.9353612
vt 0.05268595 0.9353612
vt 0.03512397 0.904943
vt 0.05165289 0.904943
vt 0.05165289 0.9353612
vt 0.03512397 0.9353612

# Normal
vn 0 0 -1

# Mesh description
g test_area2_mesh_0002

# Faces
f 1/1/1 2/2/1 3/3/1 4/4/1
f 5/5/1 6/6/1 7/7/1 8/8/1
f 9/5/1 10/6/1 11/7/1 12/8/1
f 13/5/1 14/6/1 15/7/1 16/8/1
f 17/5/1 18/6/1 19/7/1 20/8/1
f 21/5/1 22/6/1 23/7/1 24/8/1
f 25/9/1 26/10/1 27/11/1 28/12/1
f 29/13/1 30/14/1 31/15/1 32/16/1
f 33/17/1 34/18/1 35/19/1 36/20/1
f 37/17/1 38/18/1 39/19/1 40/20/1
f 41/17/1 42/18/1 43/19/1 44/20/1
f 45/17/1 46/18/1 47/19/1 48/20/1
f 49/17/1 50/18/1 51/19/1 52/20/1
f 53/21/1 54/22/1 55/23/1 56/24/1
f 57/13/1 58/14/1 59/15/1 60/16/1
f 61/17/1 62/18/1 63/19/1 64/20/1
f 65/17/1 66/18/1 67/19/1 68/20/1
f 69/17/1 70/18/1 71/19/1 72/20/1
f 73/17/1 74/18/1 75/19/1 76/20/1
f 77/17/1 78/18/1 79/19/1 80/20/1
f 81/21/1 82/22/1 83/23/1 84/24/1
f 85/13/1 86/14/1 87/15/1 88/16/1
f 89/17/1 90/18/1 91/19/1 92/20/1
f 93/17/1 94/18/1 95/19/1 96/20/1
f 97/17/1 98/18/1 99/19/1 100/20/1
f 101/17/1 102/18/1 103/19/1 104/20/1
f 105/17/1 106/18/1 107/19/1 108/20/1
f 109/21/1 110/22/1 111/23/1 112/24/1
f 113/13/1 114/14/1 115/15/1 116/16/1
f 117/17/1 118/18/1 119/19/1 120/20/1
f 121/17/1 122/18/1 123/19/1 124/20/1
f 125/17/1 126/18/1 127/19/1 128/20/1
f 129/17/1 130/18/1 131/19/1 132/20/1
f 133/17/1 134/18/1 135/19/1 136/20/1
f 137/21/1 138/22/1 139/23/1 140/24/1
f 141/13/1 142/14/1 143/15/1 144/16/1
f 145/17/1 146/18/1 147/19/1 148/20/1
f 149/17/1 150/18/1 151/19/1 152/20/1
f 153/17/1 154/18/1 155/19/1 156/20/1
f 157/17/1 158/18/1 159/19/1 160/20/1
f 161/17/1 162/18/1 163/19/1 164/20/1
f 165/21/1 166/22/1 167/23/1 168/24/1
f 169/25/1 170/26/1 171/27/1 172/28/1
f 173/29/1 174/30/1 175/31/1 176/32/1
f 177/29/1 178/30/1 179/31/1 180/32/1
f 181/29/1 182/30/1 183/31/1 184/32/1
f 185/29/1 186/30/1 187/31/1 188/32/1
f 189/29/1 190/30/1 191/31/1 192/32/1
f 193/33/1 194/34/1 195/35/1 196/36/1

